<svg id="eV7ZejotUEG1" xmlns="http://www.w3.org/2000/svg" xmlns:xlink="http://www.w3.org/1999/xlink" viewBox="0 0 810 470" shape-rendering="geometricPrecision" text-rendering="geometricPrecision"><rect width="296.300167" height="217.521949" rx="0" ry="0" transform="translate(17.571072 17.478051)" fill="#bec3cc" stroke-width="0"/><rect width="142.381343" height="33.681608" rx="0" ry="0" transform="translate(333.809329 25.889468)" fill="#bec3cc" stroke-width="0"/><rect width="142.381343" height="33.681608" rx="0" ry="0" transform="translate(333.809329 77.945864)" fill="#bec3cc" stroke-width="0"/><rect width="142.381343" height="33.681608" rx="0" ry="0" transform="translate(333.809329 132.315881)" fill="#bec3cc" stroke-width="0"/><rect width="142.381343" height="33.681608" rx="0" ry="0" transform="translate(333.809329 190.15632)" fill="#bec3cc" stroke-width="0"/><line x1="2.313618" y1="-103.41155" x2="-2.313618" y2="103.41155" transform="translate(504.343597 126.239026)" fill="none" stroke="#bec3cc" stroke-width="3"/><rect width="142.381343" height="33.681608" rx="0" ry="0" transform="translate(540.809329 25.889468)" fill="#bec3cc" stroke-width="0"/><rect width="142.381343" height="33.681608" rx="0" ry="0" transform="translate(540.809329 77.945864)" fill="#bec3cc" stroke-width="0"/><rect width="142.381343" height="33.681608" rx="0" ry="0" transform="translate(540.809329 132.315881)" fill="#bec3cc" stroke-width="0"/><rect width="142.381343" height="33.681608" rx="0" ry="0" transform="translate(540.809329 190.15632)" fill="#bec3cc" stroke-width="0"/><line x1="2.313618" y1="-103.41155" x2="-2.313618" y2="103.41155" transform="translate(711.343597 126.239026)" fill="none" stroke="#bec3cc" stroke-width="3"/><ellipse rx="26.028198" ry="26.161024" transform="translate(766.549291 52.050492)" fill="#bec3cc" stroke-width="0"/><ellipse rx="26.028198" ry="26.161024" transform="translate(766.549291 126.239026)" fill="#bec3cc" stroke-width="0"/><ellipse rx="26.028198" ry="26.161024" transform="translate(766.549291 197.676904)" fill="#bec3cc" stroke-width="0"/><rect width="142.381343" height="33.681608" rx="0" ry="0" transform="matrix(5.391749 0 0 0.620266 21.157768 271.676052)" fill="#bec3cc" stroke-width="0"/><rect width="142.381343" height="33.681608" rx="0" ry="0" transform="matrix(5.391749 0 0 0.620266 21.157768 304.551663)" fill="#bec3cc" stroke-width="0"/><rect width="142.381343" height="33.681608" rx="0" ry="0" transform="matrix(5.391749 0 0 0.620266 21.157769 337.155733)" fill="#bec3cc" stroke-width="0"/><rect width="142.381343" height="33.681608" rx="0" ry="0" transform="matrix(5.391749 0 0 0.620266 21.157769 370.031344)" fill="#bec3cc" stroke-width="0"/><rect width="142.381343" height="33.681608" rx="0" ry="0" transform="matrix(5.391749 0 0 0.620266 21.893025 399.962776)" fill="#bec3cc" stroke-width="0"/><rect width="142.381343" height="33.681608" rx="0" ry="0" transform="matrix(5.391749 0 0 0.620266 21.893025 432.838387)" fill="#bec3cc" stroke-width="0"/></svg>